<?xml version="1.0" encoding="UTF-8"?>
<svg width="130px" height="33px" viewBox="0 0 130 33" version="1.1" xmlns="http://www.w3.org/2000/svg" xmlns:xlink="http://www.w3.org/1999/xlink">
    <defs></defs>
    <g id="Symbols" stroke="none" stroke-width="1" fill="none" fill-rule="evenodd">
        <g id="Nav-bar" transform="translate(-110.000000, -51.000000)" fill="#005B23">
            <path d="M158.564203,57.0747664 C161.008825,57.0747664 162.783061,58.9486895 162.783061,61.5299982 C162.783061,64.1115344 161.008825,65.98523 158.564203,65.98523 C156.12003,65.98523 154.345794,64.1115344 154.345794,61.5299982 C154.345794,58.9486895 156.12003,57.0747664 158.564203,57.0747664 Z M168.447467,57.2140137 C170.034587,57.2140137 171.143147,58.2965934 171.143147,59.8467437 C171.143147,61.3968941 170.034587,62.4794738 168.447467,62.4794738 L166.226307,62.4794738 L166.226307,65.8334686 L165.01499,65.8334686 L165.01499,57.2140137 L168.447467,57.2140137 Z M178.755444,64.7192625 L178.755444,65.8334686 L173.126262,65.8334686 L173.126262,57.2140137 L178.755444,57.2140137 L178.755444,58.3282198 L174.337355,58.3282198 L174.337355,60.8717588 L178.667943,60.8717588 L178.667943,61.9857374 L174.337355,61.9857374 L174.337355,64.7192625 L178.755444,64.7192625 Z M182.22337,59.209892 L182.22337,65.8334686 L181.012501,65.8334686 L181.012501,57.2140137 L182.205421,57.2140137 L182.231895,57.2504182 L186.865818,63.7001632 L186.865818,57.2140137 L188.076687,57.2140137 L188.076687,65.8334686 L186.945914,65.8334686 L186.919889,65.796609 L182.22337,59.209892 Z M197.909245,65.8334686 L196.698152,65.8334686 L196.698152,58.3282198 L194.065068,58.3282198 L194.065068,57.2140137 L200.555342,57.2140137 L200.555342,58.3282198 L197.909245,58.3282198 L197.909245,65.8334686 Z M202.537783,65.8334686 L202.537783,57.2140137 L203.748652,57.2140137 L203.748652,65.8334686 L202.537783,65.8334686 Z M210.463061,63.4974355 L212.999895,57.2140137 L214.631662,57.2140137 L214.631662,65.8334686 L213.420345,65.8334686 L213.420345,59.1716673 L210.733415,65.8334686 L210.191811,65.8334686 L207.517444,59.173715 L207.517444,65.8334686 L206.306576,65.8334686 L206.306576,57.2140137 L207.938119,57.2140137 L207.960106,57.2693031 L210.463061,63.4974355 Z M222.176202,61.3825598 C222.965499,61.6685629 223.565436,62.5377211 223.565436,63.4664916 C223.565436,64.904243 222.585658,65.8334686 221.069212,65.8334686 L217.187791,65.8334686 L217.187791,57.2140137 L220.981711,57.2140137 C222.430177,57.2140137 223.403224,58.1143432 223.403224,59.4544849 C223.403224,60.4587949 222.811813,61.118627 222.176202,61.3825598 Z M225.823167,65.8334686 L225.823167,57.2140137 L231.452349,57.2140137 L231.452349,58.3282198 L227.033811,58.3282198 L227.033811,60.8717588 L231.364624,60.8717588 L231.364624,61.9857374 L227.033811,61.9857374 L227.033811,64.7192625 L231.452349,64.7192625 L231.452349,65.8334686 L225.823167,65.8334686 Z M237.74227,62.3736732 L240,65.8334686 L238.566118,65.8334686 L236.444349,62.4794738 L234.92005,62.4794738 L234.92005,65.8334686 L233.709182,65.8334686 L233.709182,57.2140137 L237.141435,57.2140137 C238.753907,57.2140137 239.837339,58.2720203 239.837339,59.8467437 C239.837339,61.3962115 238.807529,62.2184988 237.74227,62.3736732 Z M158.115035,71.3872071 C159.702379,71.3872071 160.81094,72.4700143 160.81094,74.0201647 C160.81094,75.5703151 159.702379,76.6528948 158.115035,76.6528948 L155.893875,76.6528948 L155.893875,80.0068896 L154.682782,80.0068896 L154.682782,71.3872071 L158.115035,71.3872071 Z M166.675251,71.2481873 C169.119648,71.2481873 170.893884,73.121883 170.893884,75.7034192 C170.893884,78.2851829 169.119648,80.1588785 166.675251,80.1588785 C164.231077,80.1588785 162.456842,78.2851829 162.456842,75.7034192 C162.456842,73.121883 164.231077,71.2481873 166.675251,71.2481873 Z M179.254644,74.0201647 C179.254644,75.56986 178.224833,76.3921473 177.159574,76.5468666 L179.417304,80.0068896 L177.983198,80.0068896 L175.861654,76.6528948 L174.337355,76.6528948 L174.337355,80.0068896 L173.126262,80.0068896 L173.126262,71.3872071 L176.558515,71.3872071 C178.171211,71.3872071 179.254644,72.4454413 179.254644,74.0201647 Z M180.800481,72.5016408 L180.800481,71.3872071 L187.290531,71.3872071 L187.290531,72.5016408 L184.644883,72.5016408 L184.644883,80.0068896 L183.433565,80.0068896 L183.433565,72.5016408 L180.800481,72.5016408 Z M190.949387,71.3872071 L192.353205,71.3872071 L195.78097,80.0068896 L194.443787,80.0068896 L193.707888,78.133649 L189.607717,78.133649 L188.871368,80.0068896 L187.534185,80.0068896 L190.949387,71.3872071 Z M198.645145,71.3872071 L198.645145,78.8926835 L202.514226,78.8926835 L202.514226,80.0068896 L197.434276,80.0068896 L197.434276,71.3872071 L198.645145,71.3872071 Z M161.5345,61.5299982 C161.5345,59.5627884 160.313086,58.1889725 158.564203,58.1889725 C156.787948,58.1889725 155.594355,59.531617 155.594355,61.5299982 C155.594355,63.4974355 156.815545,64.8712514 158.564203,64.8712514 C160.313086,64.8712514 161.5345,63.4974355 161.5345,61.5299982 Z M166.226307,58.3282198 L166.226307,61.3654952 L168.322723,61.3654952 C169.263239,61.3654952 169.894811,60.7550368 169.894811,59.8467437 C169.894811,58.9384507 169.263239,58.3282198 168.322723,58.3282198 L166.226307,58.3282198 Z M218.398884,60.8717588 L220.807384,60.8717588 C221.638636,60.8717588 222.154888,60.386896 222.154888,59.6062463 C222.154888,58.8296922 221.626072,58.3282198 220.807384,58.3282198 L218.398884,58.3282198 L218.398884,60.8717588 Z M222.317324,63.3524999 C222.317324,62.6721903 221.865913,61.9857374 220.857416,61.9857374 L218.398884,61.9857374 L218.398884,64.7192625 L220.857416,64.7192625 C221.771457,64.7192625 222.317324,64.2084614 222.317324,63.3524999 Z M238.588778,59.8467437 C238.588778,58.9384507 237.956757,58.3282198 237.016466,58.3282198 L234.92005,58.3282198 L234.92005,61.3780093 L237.016466,61.3780093 C237.942398,61.3780093 238.588778,60.7484384 238.588778,59.8467437 Z M155.893875,72.5016408 L155.893875,75.5384611 L157.990516,75.5384611 C158.931031,75.5384611 159.562603,74.9284577 159.562603,74.0201647 C159.562603,73.1118717 158.931031,72.5016408 157.990516,72.5016408 L155.893875,72.5016408 Z M169.645547,75.7034192 C169.645547,73.7362094 168.424134,72.3623935 166.675251,72.3623935 C164.898772,72.3623935 163.705179,73.705038 163.705179,75.7034192 C163.705179,77.6706289 164.926592,79.0446724 166.675251,79.0446724 C168.424134,79.0446724 169.645547,77.6706289 169.645547,75.7034192 Z M174.337355,72.5016408 L174.337355,75.5514302 L176.433771,75.5514302 C177.359478,75.5514302 178.006083,74.9218594 178.006083,74.0201647 C178.006083,73.1118717 177.374062,72.5016408 176.433771,72.5016408 L174.337355,72.5016408 Z M193.326925,77.0194429 L191.657241,72.6574977 L189.976115,77.0194429 L193.326925,77.0194429 Z M127.18921,72.0422349 L127.179122,72.0372971 L123.101888,70.4450962 L125.255163,67.45798 C125.652149,67.6150903 126.08119,67.7086832 126.534216,67.7086832 C126.932996,67.7086832 127.314515,67.6386569 127.671601,67.5158864 C128.171924,68.6057831 129.212023,69.3938037 130.449831,69.5365496 L127.18921,72.0422349 Z M133.1579,70.5135514 L129.898399,70.9783735 L132.004824,69.3596883 C132.774139,69.0896829 133.423081,68.5642611 133.84181,67.8779134 C134.178722,67.8166404 134.504425,67.7230476 134.815558,67.6005015 C134.937277,67.883749 135.095533,68.1465721 135.281585,68.3869509 L133.1579,70.5135514 Z M118.731454,69.3466706 C119.343633,69.3248996 119.919499,69.1641981 120.429237,68.893295 L121.35098,69.9567075 L118.731454,69.3466706 Z M123.391726,65.7441308 C123.65489,66.279877 124.053893,66.7337014 124.538301,67.0730597 L122.441067,69.982294 L121.103508,68.4392462 C121.859597,67.8085605 122.378078,66.9022583 122.497779,65.871839 C122.807791,65.869819 123.10682,65.8240326 123.391726,65.7441308 Z M124.35606,74.2193351 L125.248438,81.2791998 C125.417678,82.618902 124.374889,83.8037383 123.026123,83.8037383 L120.436858,83.8037383 C119.112077,83.8037383 117.82473,83.3606872 116.78082,82.5441624 C112.654046,79.3162185 110,74.2889125 110,68.6392252 C110,58.8974872 117.88727,51.0002244 127.616681,51 C137.24029,51 144.997099,58.5720444 145.228431,68.2049274 C145.368531,74.0424738 142.67436,79.2544966 138.427437,82.5639134 C137.390925,83.3716849 136.110751,83.8037383 134.797177,83.8037383 L130.832919,83.8037383 C129.385971,83.8037383 128.099297,82.8819496 127.632373,81.5108253 L125.259198,74.5432068 L128.662161,71.9284421 L138.833614,70.5196114 C139.378546,70.9777002 140.10796,71.2223434 140.89857,71.1096729 C142.02923,70.948747 142.950749,70.0357116 143.116851,68.9045172 C143.288332,67.736963 142.692965,66.6879149 141.760463,66.1858352 C141.760687,66.1808975 141.760911,66.1757353 141.760911,66.1705731 C141.760911,64.171232 140.143601,62.5503023 138.147462,62.5471601 C138.065644,59.7117676 135.746268,57.4381567 132.894737,57.4381567 C130.592845,57.4381567 128.637951,58.9203804 127.926246,60.9827901 C127.499446,60.7973999 127.02916,60.6934827 126.534216,60.6934827 C126.161887,60.6934827 125.803905,60.7527357 125.467442,60.8602441 C124.893594,59.7941383 123.768987,59.0694108 122.474691,59.0694108 C120.927991,59.0694108 119.624953,60.1052167 119.214069,61.5210052 C119.010532,61.4886854 118.80184,61.4711788 118.589113,61.4711788 C116.577955,61.4711788 114.920297,62.9816824 114.683137,64.9314215 C113.357458,65.1266872 112.349638,66.3005258 112.422714,67.6983588 C112.494221,69.0676875 113.656487,70.1878841 115.025876,70.2116751 C115.633124,70.2219995 116.191056,70.0240405 116.642289,69.6893955 L122.350731,71.0185489 L126.442087,72.6163609 L124.35606,74.2193351 Z M138.210451,69.7926394 L134.488061,70.3236723 L135.843105,68.9669125 C136.468509,69.4829076 137.268085,69.794435 138.141634,69.794435 C138.164723,69.794435 138.187587,69.7935372 138.210451,69.7926394 Z" id="OTP-logo"></path>
        </g>
    </g>
</svg>